{"title":"Madras Cafe - 1CD - DVDSCR - Xander","uid":8870873,"size":769392770,"categoryP":"video","categoryS":"movies","magnet":"?xt=urn:btih:3785ee3cd68636beeeed4daa8004643813338d45&amp;dn=Madras+Cafe+-+1CD+-+DVDSCR+-+Xander&amp;tr=udp%3A%2F%2Ftracker.openbittorrent.com%3A80&amp;tr=udp%3A%2F%2Fopen.demonii.com%3A1337&amp;tr=udp%3A%2F%2Ftracker.coppersurfer.tk%3A6969&amp;tr=udp%3A%2F%2Fexodus.desync.com%3A6969","seeders":1,"leechers":0,"uploader":null,"files":1,"time":1378059679,"description":"Format                         : AVI\nFormat/Info                    : Audio Video Interleave\nFile size                      : 734 MiB\nDuration                       : 2h 3mn\nOverall bit rate               : 833 Kbps\nWriting application            : Lavf51.12.1\n\nVideo\nID                             : 0\nFormat                         : xvid\nCodec ID                       : xvid\nDuration                       : 2h 3mn\nBit rate                       : 693 Kbps\nWidth                          : 640 pixels\nHeight                         : 272 pixels\nDisplay aspect ratio           : 2.35:1\nFrame rate                     : 23.976 fps\nBits/(Pixel*Frame)             : 0.166\nStream size                    : 610 MiB (83%)\n\nAudio\nID                             : 1\nFormat                         : MPEG Audio\nFormat version                 : Version 1\nFormat profile                 : Layer 3\nMode                           : Joint stereo\nMode extension                 : MS Stereo\nCodec ID                       : 55\nCodec ID/Hint                  : MP3\nDuration                       : 2h 3mn\nBit rate mode                  : Constant\nBit rate                       : 128 Kbps\nChannel(s)                     : 2 channels\nSampling rate                  : 44.1 KHz\nCompression mode               : Lossy\nStream size                    : 113 MiB (15%)\nAlignment                      : Aligned on interleaves\nInterleave, duration           : 26 ms (0.63 video frame)\nInterleave, preload duration   : 26 ms\n\n","torrent":{"xt":"urn:btih:3785ee3cd68636beeeed4daa8004643813338d45","amp;dn":"Madras+Cafe+-+1CD+-+DVDSCR+-+Xander","amp;tr":["udp%3A%2F%2Ftracker.openbittorrent.com%3A80","udp%3A%2F%2Fopen.demonii.com%3A1337","udp%3A%2F%2Ftracker.coppersurfer.tk%3A6969","udp%3A%2F%2Fexodus.desync.com%3A6969"],"infoHash":"3785ee3cd68636beeeed4daa8004643813338d45","infoHashBuffer":{"type":"Buffer","data":[55,133,238,60,214,134,54,190,238,237,77,170,128,4,100,56,19,51,141,69]},"announce":[],"urlList":[]}}